<?xml version="1.0" encoding="UTF-8"?>
<svg width="34px" height="34px" viewBox="0 0 34 34" version="1.1" xmlns="http://www.w3.org/2000/svg" xmlns:xlink="http://www.w3.org/1999/xlink">
    <!-- Generator: Sketch 46.2 (44496) - http://www.bohemiancoding.com/sketch -->
    <title>Group 2</title>
    <desc>Created with Sketch.</desc>
    <defs></defs>
    <g id="Page-1" stroke="none" stroke-width="1" fill="none" fill-rule="evenodd">
        <g id="Mobile" transform="translate(-147.000000, -397.000000)">
            <g id="Group-2" transform="translate(148.000000, 398.000000)">
                <g id="Group">
                    <circle id="Oval" stroke="#292929" stroke-width="2" fill="#FFFFFF" cx="16" cy="16" r="16"></circle>
                    <circle id="Oval-2" fill="#292929" cx="16" cy="16" r="11"></circle>
                </g>
                <g id="delivery-man" transform="translate(9.000000, 7.000000)" fill-rule="nonzero" fill="#FFFFFF">
                    <path d="M12.8706689,7.32869336 C13.0360303,6.91674219 13.125,6.37925 13.125,5.66156445 C13.125,2.01363672 10.9465576,0 7,0 C3.05344238,0 0.875,2.01363672 0.875,5.66156445 C0.875,6.37925 0.963662109,6.91674219 1.12933105,7.32869336 C0.439550781,7.79224219 0,8.37645117 0,9.09556445 C0,10.0121367 0.328706055,10.3416777 1.08790527,10.4181777 C1.35741211,14.1048867 3.89375,17 7,17 C10.10625,17 12.6425879,14.1048867 12.9120947,10.4181777 C13.6710205,10.3416777 14,10.0121699 14,9.09556445 C14,8.37618555 13.5601758,7.79224219 12.8706689,7.32869336 Z M7,0.85 C10.4836621,0.85 12.25,2.46868555 12.25,5.66156445 C12.25,6.21462891 12.1998242,6.60619336 12.1021387,6.90170117 C10.6729492,6.25261328 8.68,5.95 7,5.95 C5.32,5.95 3.32705078,6.25261328 1.89786133,6.90170117 C1.8001416,6.60619336 1.75,6.21462891 1.75,5.66156445 C1.75,2.46868555 3.51633789,0.85 7,0.85 Z M7,16.15 C4.37732422,16.15 2.22513184,13.6342988 1.96379395,10.42525 C3.07593262,10.3677422 4.71129395,10.1441855 7,10.1441855 C9.28901367,10.1441855 10.9240674,10.3674434 12.0362061,10.42525 C11.7748682,13.6342988 9.62267578,16.15 7,16.15 Z M13.0791992,9.52056445 C13.0584863,9.53218555 12.9351318,9.58886328 12.4961621,9.58886328 C12.10125,9.58886328 11.5946045,9.54579883 10.9529492,9.49141211 C9.91928711,9.40358984 8.63272949,9.29448438 7,9.29448438 C5.36754395,9.29448438 4.08098633,9.40385547 3.04732422,9.49141211 C2.40566895,9.54579883 1.89875,9.58886328 1.50383789,9.58886328 C1.07334473,9.58886328 0.946469727,9.53447656 0.935395508,9.53447656 C0.934506836,9.53447656 0.934506836,9.53477539 0.934814453,9.53533984 C0.934233398,9.53447656 0.87503418,9.43958203 0.87503418,9.09559766 C0.87503418,7.74266992 4.10289551,6.8000332 7.00003418,6.8000332 C9.89717285,6.8000332 13.1250342,7.74266992 13.1250342,9.09559766 C13.125,9.41149219 13.0748242,9.51717773 13.0791992,9.52056445 Z" id="Shape"></path>
                    <path d="M9,2.6 L5,2.6 C4.44765625,2.6 4,2.958125 4,3.4 L4,4.2 C4,4.641875 4.44765625,5 5,5 L9,5 C9.55234375,5 10,4.641875 10,4.2 L10,3.4 C10,2.958125 9.55234375,2.6 9,2.6 Z M9,4.2 L5,4.2 L5,3.4 L9,3.4 L9,4.2 L9,4.2 Z" id="Shape"></path>
                </g>
            </g>
        </g>
    </g>
</svg>