<?xml version="1.0" encoding="utf-8"?>
<!-- Svg Vector Icons : http://www.onlinewebfonts.com/icon -->
<!DOCTYPE svg PUBLIC "-//W3C//DTD SVG 1.1//EN" "http://www.w3.org/Graphics/SVG/1.1/DTD/svg11.dtd">
<svg version="1.1" xmlns="http://www.w3.org/2000/svg" xmlns:xlink="http://www.w3.org/1999/xlink" x="0px" y="0px" viewBox="0 0 1000 1000" enable-background="new 0 0 1000 1000" xml:space="preserve">
<metadata> Svg Vector Icons : http://www.onlinewebfonts.com/icon </metadata>
<g><path d="M673,133.4c8.3,33.3,9.1,36.1,8.3,70.2c-0.3,13.2-7.9,74.1-5.8,92.8c1.7,15.4,5.5,16.6,11.6,29.3c10.6,22.1,7,52.6,3,74.9c-2.2,12.2-6.9,29.5-14.1,39.5c-7.9,11-23.6,11.1-30.6,23.9c-10,18.4-4.4,44.3-10.7,64.2c-7.2,22.6-25.5,24.1-26.8,53.7c9,1.3,17.9,2.5,26.8,3.8c9,19.1,25.4,57.5,42.2,69c14.1,3.8,28.1,7.7,42.2,11.5c49.3,20.2,104.1,44.4,153.4,65.2c45,19,98.8,25.8,115.1,72.9c0,32,3,107.6,2.2,149.6H10.1c-0.8-42,2.2-117.6,2.2-149.6c16.3-47.1,70.1-53.9,115.1-72.9c49.4-20.8,104.2-45,153.4-65.2c14.1-3.8,28.1-7.7,42.2-11.5c16.8-11.6,33.2-50,42.2-69l20-4.9c-4.5-25.2-20.1-27.2-26.6-45c-2.5-26.8-5.1-53.7-7.6-80.6c0.1,1.3-18.4-3.4-20.8-4.9c-26-16.3-26.6-82.6-29.1-110.2c-1.1-12.6,16.4-22.9,11.5-46.1c-28.6-135.3,12.3-198.6,77-219.6c44.9-18.2,128.7-51.9,206.9-3.8l19.4,18l31.4,5.4C662.9,103.2,673,133.4,673,133.4z"/></g>
</svg>