<?xml version="1.0" encoding="UTF-8"?>
<svg width="38px" height="34px" viewBox="0 0 38 34" version="1.1" xmlns="http://www.w3.org/2000/svg" xmlns:xlink="http://www.w3.org/1999/xlink">
    <!-- Generator: Sketch 46.2 (44496) - http://www.bohemiancoding.com/sketch -->
    <title>courier copy</title>
    <desc>Created with Sketch.</desc>
    <defs></defs>
    <g id="Page-1" stroke="none" stroke-width="1" fill="none" fill-rule="evenodd">
        <g id="Desktop-HD-Copy-6" transform="translate(-701.000000, -35.000000)" fill-rule="nonzero" fill="#E05139">
            <g id="courier-copy" transform="translate(701.000000, 35.000000)">
                <g id="Layer_1">
                    <path d="M34.9601544,26.1225212 L34.9601544,0 L23.8754573,0 L17.0969236,0 L6.69362755,0 L6.67804164,18.0011859 L0,18.0011859 L0,34 L8.99440431,34 L8.99440431,32.2794148 L34.9397443,32.2794148 C36.6271785,32.2794148 38,30.8983323 38,29.2008187 C37.9999258,27.5100249 36.6381628,26.1337957 34.9601544,26.1225212 Z M6.67017447,22.1504065 L6.67017447,31.6616348 L2.32422984,31.6616348 L2.32422984,20.339327 L6.67017447,20.339327 L6.67017447,22.1504065 Z M19.4210793,2.33821585 L21.5512274,2.33821585 L21.5512274,5.44130216 L19.4210793,5.44130216 L19.4210793,2.33821585 Z M9.0159277,2.33821585 L17.0969236,2.33821585 L17.0969236,7.77951801 L23.8754573,7.77951801 L23.8754573,2.33821585 L32.6359245,2.33821585 L32.6359245,26.1221479 L20.683983,26.1221479 C20.4141984,26.1221479 20.194734,25.9013629 20.194734,25.6300295 C20.194734,25.3586961 20.4141984,25.137911 20.683983,25.137911 L24.8443812,25.137911 C26.6075183,25.137911 28.0419413,23.6948564 28.0419413,21.9211843 C28.0419413,20.3373111 26.8672835,18.9691457 25.3095834,18.7385795 L21.6903131,18.2032299 C18.2933276,17.7008077 16.1405427,18.1899395 13.3563059,19.2683292 L8.99959961,21.146458 L9.0159277,2.33821585 Z M34.93967,29.9411243 L8.99440431,29.9411243 L8.99440431,26.6975927 L8.99484962,26.6975927 L8.99752149,23.6908992 L14.2116011,21.4423563 C17.0532089,20.3437323 18.7243892,20.1274272 21.3522474,20.5163583 L24.9715176,21.0516332 C25.3969387,21.1146506 25.7177857,21.48835 25.7177857,21.9208856 C25.7177857,22.4053882 25.3259857,22.7993965 24.8444554,22.7993965 L20.683983,22.7993965 C19.1326658,22.7993965 17.8705042,24.0690785 17.8705042,25.6297308 C17.8705042,27.1903831 19.1326658,28.4600651 20.683983,28.4600651 L34.93967,28.4600651 C35.3455716,28.4600651 35.6757702,28.7922506 35.6757702,29.2005947 C35.6756959,29.6090134 35.3455716,29.9411243 34.93967,29.9411243 Z" id="Shape"></path>
                </g>
            </g>
        </g>
    </g>
</svg>