<?xml version="1.0" encoding="UTF-8"?>
<svg width="27px" height="34px" viewBox="0 0 27 34" version="1.1" xmlns="http://www.w3.org/2000/svg" xmlns:xlink="http://www.w3.org/1999/xlink">
    <!-- Generator: Sketch 46.2 (44496) - http://www.bohemiancoding.com/sketch -->
    <title>Group</title>
    <desc>Created with Sketch.</desc>
    <defs></defs>
    <g id="Page-1" stroke="none" stroke-width="1" fill="none" fill-rule="evenodd">
        <g id="Group" transform="translate(0.000000, -1.000000)">
            <g id="placeholder" transform="translate(0.000000, 1.000000)">
                <path d="M1.2830909,10.6098668 C4.08180876,5.6257948 6.48325278,2.72352381 8.48742295,1.9030539 C10.4915931,1.08258398 14.5897939,1.32402152 20.7820252,2.62736653 L26.712991,13.5025534 C24.8903306,19.0695015 23.2296298,22.8894481 21.7308884,24.9623933 C20.2321471,27.0353385 17.321851,29.5376477 13,32.469321 C8.62275901,29.4109689 5.71086559,26.5324309 4.26431972,23.833707 C2.81777386,21.1349831 1.82403092,16.7270363 1.2830909,10.6098668 Z" id="Rectangle" fill="#FFFFFF"></path>
                <path d="M13.5084675,0 C6.13842604,0 0.142349112,5.8543945 0.142349112,13.0503853 C0.142349112,18.1918716 2.34740237,23.3927798 6.51914201,28.0908624 C9.63484615,31.5997248 12.7229112,33.587789 12.8529586,33.6706055 C13.0521834,33.7977156 13.2803254,33.8611927 13.5084675,33.8611927 C13.7366095,33.8611927 13.9649112,33.7977156 14.1641361,33.6706055 C14.2940237,33.587633 17.3822485,31.5997248 20.4981124,28.0908624 C24.6700118,23.3927798 26.8752249,18.1918716 26.8752249,13.0503853 C26.8752249,5.8543945 20.8789882,0 13.5084675,0 Z M13.5075089,31.2559817 C11.0492308,29.4731651 2.53879882,22.6084404 2.53879882,13.0503853 C2.53879882,7.14436697 7.4598284,2.33944954 13.5084675,2.33944954 C19.557426,2.33944954 24.4787751,7.14436697 24.4787751,13.0503853 C24.4787751,22.5862936 15.9645089,29.4689541 13.5075089,31.2559817 Z" id="Shape" fill="#000000" fill-rule="nonzero"></path>
            </g>
            <path d="M18.0195469,10.609375 L11.7500156,10.609375 L11.7500156,14.21875 L13.8945469,14.21875 C15.6054929,14.21875 16.9687605,14.7050733 17.9843906,15.6777344 C19.0000207,16.6503955 19.5078281,17.9413982 19.5078281,19.5507812 C19.5078281,21.1836019 18.9980676,22.499995 17.9785312,23.5 C16.9589949,24.500005 15.5976804,25 13.8945469,25 L8.41017187,25 L8.41017187,7.9375 L18.0195469,7.9375 L18.0195469,10.609375 Z M11.7500156,16.8789062 L11.7500156,22.3398438 L13.8945469,22.3398438 C14.6133005,22.3398438 15.1738417,22.0742214 15.5761875,21.5429688 C15.9785333,21.0117161 16.1797031,20.3398478 16.1797031,19.5273438 C16.1797031,18.7539024 15.9785333,18.1191431 15.5761875,17.6230469 C15.1738417,17.1269506 14.6133005,16.8789062 13.8945469,16.8789062 L11.7500156,16.8789062 Z" id="Б" fill="#292929"></path>
        </g>
    </g>
</svg>